/* XPM */
static char *default[] = {
/* columns rows colors chars-per-pixel */
"48 48 256 2",
"   c #000000",
".  c #000008",
"X  c gray3",
"o  c #000010",
"O  c #000018",
"+  c #000A14",
"@  c #001018",
"#  c #101210",
"$  c #291C08",
"%  c #212018",
"&  c #000021",
"*  c #000029",
"=  c #081421",
"-  c #081821",
";  c #081C29",
":  c #101A25",
">  c #000031",
",  c #000239",
"<  c #082029",
"1  c #102029",
"2  c #082831",
"3  c #082431",
"4  c #182831",
"5  c #142835",
"6  c #103039",
"7  c #2C2D34",
"8  c #422808",
"9  c #000242",
"0  c #000842",
"q  c #00004A",
"w  c #000C4A",
"e  c #00104A",
"r  c #000252",
"t  c #00005A",
"y  c #000A5A",
"u  c #001152",
"i  c #081352",
"p  c #00135A",
"a  c #00185A",
"s  c #081A5A",
"d  c #083042",
"f  c #082452",
"g  c #293642",
"h  c #000263",
"j  c #000B63",
"k  c #00046B",
"l  c #000B6B",
"z  c #001B63",
"x  c #00166B",
"c  c #001373",
"v  c #001873",
"b  c #001A7B",
"n  c #002063",
"m  c #082263",
"M  c #00246B",
"N  c #00286B",
"B  c #102867",
"V  c #002373",
"C  c #002A73",
"Z  c #00227B",
"A  c #00297B",
"S  c #003073",
"D  c #00337B",
"F  c #00397B",
"G  c #08347B",
"H  c #103373",
"J  c #10387B",
"K  c #104152",
"L  c #394B52",
"P  c #294552",
"I  c #315163",
"U  c #295563",
"Y  c #424142",
"T  c #565546",
"R  c #4A5963",
"E  c #737173",
"W  c #FF7D00",
"Q  c #FF8E14",
"!  c #FF9621",
"~  c #FF9A29",
"^  c #FF9E31",
"/  c #FFA439",
"(  c #84866B",
")  c #FFA642",
"_  c #FFAE4A",
"`  c #FFAA42",
"'  c #FFB552",
"]  c #FFB65A",
"[  c #FFBA5A",
"{  c #FFBE63",
"}  c #FFC46B",
"|  c #FFC773",
" . c #FFCE7B",
".. c #002A84",
"X. c #003384",
"o. c #003B84",
"O. c #00348C",
"+. c #003A8C",
"@. c #083C84",
"#. c #004484",
"$. c #00498C",
"%. c #084A8C",
"&. c #034289",
"*. c #134789",
"=. c #004394",
"-. c #004D94",
";. c #034D99",
":. c #104D94",
">. c #005194",
",. c #085594",
"<. c #00519C",
"1. c #005B9C",
"2. c #055899",
"3. c #105594",
"4. c #185A94",
"5. c #105A9C",
"6. c #15569A",
"7. c #215D9C",
"8. c #04679C",
"9. c #10619C",
"0. c #0B6E8F",
"q. c #005CA5",
"w. c #0859A5",
"e. c #0061A5",
"r. c #0064AD",
"t. c #0864AD",
"y. c #006CAD",
"u. c #086CAD",
"i. c #1864A5",
"p. c #106CA5",
"a. c #186CA5",
"s. c #1067A9",
"d. c #0871AD",
"f. c #087DA5",
"g. c #1471AD",
"h. c #0073B5",
"j. c #0079B5",
"k. c #0879B5",
"l. c #047BBB",
"z. c #107AB5",
"x. c #107CBD",
"c. c #1479B7",
"v. c #296DAD",
"b. c #2469A8",
"n. c #2972AD",
"m. c #2171AD",
"M. c #3175AD",
"N. c #217AB5",
"B. c #297BB5",
"V. c #357CB5",
"C. c #0085BD",
"Z. c #0884BD",
"A. c #1083BD",
"S. c #1885BD",
"D. c #1488BB",
"F. c #218BBD",
"G. c #2586BC",
"H. c #3982BD",
"J. c #3688BB",
"K. c #4A8A9C",
"L. c #428ABD",
"P. c #4292BD",
"I. c #4A8AAD",
"U. c #008DC6",
"Y. c #1086C6",
"T. c #108DC6",
"R. c #188DC6",
"E. c #0092C6",
"W. c #0697CC",
"Q. c #1896CE",
"!. c #189CCE",
"~. c #1097CA",
"^. c #109ED6",
"/. c #358EC6",
"(. c #2194C6",
"). c #219CCE",
"_. c #2597CC",
"`. c #3393C8",
"'. c #219CD6",
"]. c #18A3D6",
"[. c #24A2CE",
"{. c #21A5D6",
"}. c #29A6D6",
"|. c #29ABD6",
" X c #24ADDB",
".X c #31AED6",
"XX c #31AEDE",
"oX c #39ACDA",
"OX c #31B3DE",
"+X c #39B4DE",
"@X c #29B2DE",
"#X c #39BAE7",
"$X c #4A96C6",
"%X c #4398CB",
"&X c #529EC6",
"*X c #42A2CE",
"=X c #52A2CE",
"-X c #5AA6CE",
";X c #4AA5D6",
":X c #44A8D8",
">X c #5AACD6",
",X c #56ACDA",
"<X c #42B5DE",
"1X c #4AB4DE",
"2X c #56B5DE",
"3X c #63B5DE",
"4X c #63A6CE",
"5X c #42BBE7",
"6X c #4ABDE7",
"7X c #52BAE7",
"8X c #63BEE7",
"9X c #52C3E7",
"0X c #5AC7E7",
"qX c #5AC7EF",
"wX c #5ACBEF",
"eX c #63CDEF",
"rX c #6BCEEF",
"tX c #63C3E7",
"yX c #73D3EF",
"uX c #6BD6F7",
"iX c #73D6F7",
"pX c #7BD7F7",
"aX c #67D1F3",
"sX c #949694",
"dX c #B5B694",
"fX c #949EAD",
"gX c #94A6AD",
"hX c #A9ACB5",
"jX c #FFCF84",
"kX c #FFD78C",
"lX c #FFD384",
"zX c #FFDF9C",
"xX c #FFDB94",
"cX c #FFE39C",
"vX c #FFEDAD",
"bX c #FFE7A5",
"nX c #FFF7BD",
"mX c #ADB8C6",
"MX c #B5C7D2",
"NX c #CECCCE",
"BX c #C6C7C6",
"VX c #D6D5D6",
"CX c #FFFBC6",
"ZX c #FFFFCE",
"AX c #FFF7C6",
"SX c #FFFFD6",
"DX c #FFFFDE",
"FX c #E7E3DE",
"GX c #EFECEF",
"HX c #FFFFE7",
"JX c #FFFFEF",
"KX c #F7F3EB",
"LX c #FFFFF7",
"PX c #FFFEFF",
"IX c #F7F3F7",
"UX c None",
/* pixels */
"UXUXUXUXUXUXUXUXUXUXUXUXUXUXUXUXUXUXUXUXUXUXUXUXUXUXUXUXUXUXUXUXUXUXUXUXUXUXUXUXUXUXUXUXUXUXUXUX",
"UXUXUXUXUXUXUXUXUXUXUXUXUXUXUXUXUXUXUXUXUXUXUXUXUXUXUXUXUXUXUXUXUXUXUXUXUXUXUXUXUXUXUXUXUXUXUXUX",
"UXUXUXUXUXUXUXUXUXUXUXUXQ UXUXUXUXUXUXUXUXUXUXUXUXUXUXUXUXUXUXUXUXUXUXUXUXUXUXUXUXUXUXUXUXUXUXUX",
"UXUXUXUXUXUX` ^ UXUXUXUX' UXUXUXUXUXUXUXUXUXUXUXUXUXUXUXUXUXUXUXUXUXUXUXUXUXUXUXUXUXUXUXUXUXUXUX",
"UXUXUXUXUXUXUXbX] UXUX) zXUXUXUXUX/ _ UXUXUXUXUXUXUXUXUXUXUXUXUXUXUXUXUXUXUXUXUXUXUXUXUXUXUXUXUX",
"UXUXUXUXUXUXUX{ ZX .UX) CX! UX~ xXZX! UXUXUXUXUXUXUXUXUXUXUXUXUXUXUXUXUXUXUXUXUXUXUXUXUXUXUXUXUX",
"UXUXUXUXUXUXUXUXvXZXvXjXZX|  .ZXZXcXUXUXUXUXUXUXUXUXUXUXUXUXUXUXUXUXUXUXUXUXUXUXUXUXUXUXUXUXUXUX",
"UXUXUXUXUX| kX' | DXSXSXDXZXSXZXZX' UXUXUXUXUXUXUXUXUXUXUXUXUXUXUXUXUXUXUXUXUXUXUXUXUXUXUXUXUXUX",
"UXUXUXUXUX~ nXZXZXSXLXHXJXHXLXZXnX^ / / W UXUXUXUXUXUXUXUXUXUXUXUXUXUXUXUXUXUXUXUXUXUXUXUXUXUXUX",
"UXUXUXUXUXUX` ZXSXLXPXPXPXPXJXSXZXZXvXQ UXUXUXUXUXUXUXUXUXUXUXUXUXUXUXUXUXUXUXUXUXUXUXUXUXUXUXUX",
"UXUXUXUXUX_ xXZXSXLXPXGXGXPXPXSXdXT 8 UXUXUXUXUXUXUXUXUXUXUXUXUXUXUXUXUXUXUXUXUXUXUXUXUXUXUXUXUX",
"UXUXUX[ vXZXZXSXHXHXKXVXNXVXFXT       X UXUXUX6.w.x.R.'.'.'.Y.t.6.UXUXUXUXUXUXUXUXUXUXUXUXUXUXUX",
"UXUXUXUXUXUXUX/ } DXPXIXGXNXNXsX#     hX4 %.x.`.;X2XqXeXaXwX6XoX'.Y.2.UXUXUXUXUXUXUXUXUXUXUXUXUX",
"UXUXUXUXUXUXUXUXvXJXDXLXKXY E BX7   : fXmXP P.=X>X3XeXuXuXeX7X1X:X`.G.g.=.UXUXUXUXUXUXUXUXUXUXUX",
"UXUXUXUXUXUXUX} SXSXZXDX(     7   + 5 L mXhXI &X>X3XrXuXuXrX2X;X%X/.G.N.p.>.A UXUXUXUXUXUXUXUXUX",
"UXUXUXUXUXUXUXAXCX} lXZX%       o @ 4 g L MXgXI.>X3XrXiXiXrX2X;X%XJ.B.m.i.5.-.C UXUXUXUXUXUXUXUX",
"UXUXUXUXUXUXkXzXUXUX .ZX$     @ @ @ - 4 g R MX4X-X8XiXiXiXyX>X%X%XJ.B.m.i.6.3.-.+.UXUXUXUXUXUXUX",
"UXUXUXUXUX/ ] UXUXUX{  .UX# - ; = = = - 4 P K.7X2XeXrXyXpXrX,X$XL.V.n.b.6.a.S.u.E.+.UXUXUXUXUXUX",
"UXUXUXUXUXUXUXUXUXUXUXUXUXf d < - ; < - : U <X9XqXeXeXrXyXrX=X$XH.H.J.b.6.:.*.;.W.C.UXUXUXUXUXUX",
"UXUXUXUXUXUXUXUXUXUXUXUXUXq.8.6 5 2 3 < K oX5X6X9XqXeXeXrXtX=XL.V.%X:X7.6.*.@.%.D.E.1.UXUXUXUXUX",
"UXUXUXUXUXUXUXUXUXUXUXUXV j.C.0.6 1 2 0.|.OX#X5X6X9X0X0X,X$XL.V.M.v.:X/.*.*.*.@.T.E.j.C UXUXUXUX",
"UXUXUXUXUXUXUXUXUXUXUXUX<.h.C.U.f.f.~.]. X@XOX#X5X6X9X1X%XJ.H.M.v.v.<X+XF.N.(.R.~.T.l.-.UXUXUXUX",
"UXUXUXUXUXUXUXUXUXUXUXUXr.h.j.C.U.W.^.].].|.}.OX+X5X6X1X/.H.V.v.b.v.<X+XXX(.b.S.T.A.j.r.UXUXUXUX",
"UXUXUXUXUXUXUXUXUXUXUXC e.y.h.l.C.U.W.A.S.N.G.}.OX+X<X5X<X*Xn.b.n.`.+XOX.XG.G.Q.T.A.k.r.V UXUXUX",
"UXUXUXUXUXUXUXUXUXUXUX+.q.r.y.y.>.2.1.8.s.a.g.F.|.OXOX+X+X<X+X+X+X+XOX.X|.[.(.S.A.z.u.e.+.UXUXUX",
"UXUXUXUXUXUXUXUXUXUXUX=.<.q.r.#.o.#.$.>.2.9.i.a.).|.@XXXOX+X+X+XOX.X.X|.[.F.4.*.5.d.t.q.=.UXUXUX",
"UXUXUXUXUXUXUXUXUXUXUX+.o.-.>.S D F o.#.$.,.5.p.!.{.{.|.|.|..X.X|.|.}.)._.F.4.J H G >.<.=.UXUXUX",
"UXUXUXUXUXUXUXUXUXUXUX+.D M N N C S D F o.#.%.3.p.!.].{.{.{.{.{.[.).).(.R.S.4.B m s a N A UXUXUX",
"UXUXUXUXUXUXUXUXUXUXUXO.X.z z n M N C S S D F &.,.T.~.Q.!.!.)._.(.(.R.D.S.3.H B s u w 9 9 UXUXUX",
"UXUXUXUXUXUXUXUXUXUXUX..M p a a z n M N N C S D 1.Z.Z.T.T.T.R.R.D.S.S.c.3.H B s i w 9 , , UXUXUX",
"UXUXUXUXUXUXUXUXUXUXUXZ z u u u a a z z n M M -.h.h.k.k.l.x.x.z.z.z.z.s.B m s i w 9 , > 9 UXUXUX",
"UXUXUXUXUXUXUXUXUXUXUXv Z z u u p a p a a z n -.r.y.y.y.u.u.d.u.u.u.t.,.s i e 0 , , > > 9 UXUXUX",
"UXUXUXUXUXUXUXUXUXUXUXj Z A ..c ..D u u u p a a $.#.1.q.+.=.e.e.q.q.<.n u w 0 , , > > > 9 UXUXUX",
"UXUXUXUXUXUXUXUXUXUXUX, c b Z ....u w w w u u u z p N <.<.<.<.<.;.;.D w 0 9 , > > > > > * UXUXUX",
"UXUXUXUXUXUXUXUXUXUXUXUXl c b Z Z w 0 0 0 w w w w e a =.o.o.&.=.=.=.D M u , > > > > * , UXUXUXUX",
"UXUXUXUXUXUXUXUXUXUXUXUXr l c v b p , , 9 0 0 0 0 0 e a w w u X.+.O.O.X.V , > > * * * , UXUXUXUX",
"UXUXUXUXUXUXUXUXUXUXUXUXUXh l l c x > , , , , , , 9 9 0 0 0 0 0 M ....Z x , * * * * , UXUXUXUXUX",
"UXUXUXUXUXUXUXUXUXUXUXUXUX9 h k l l y , > > > > , , , , , , , , p Z b b c , * * * * > UXUXUXUXUX",
"UXUXUXUXUXUXUXUXUXUXUXUXUXUXq t h k r * * * > > > > > > > , w y c c c c l j 9 * & , UXUXUXUXUXUX",
"UXUXUXUXUXUXUXUXUXUXUXUXUXUXUX9 9 r 9 * * * * * * * * * 9 j c l l l l k h h t q 9 UXUXUXUXUXUXUX",
"UXUXUXUXUXUXUXUXUXUXUXUXUXUXUXO > > > O & > , > * * * * * r h k h h t t r 9 , , UXUXUXUXUXUXUXUX",
"UXUXUXUXUXUXUXUXUXUXUXUXUXUXUXUXUX* & o O > 9 q * * & & & & 9 r q q 9 , * & > UXUXUXUXUXUXUXUXUX",
"UXUXUXUXUXUXUXUXUXUXUXUXUXUXUXUXUXUX& o . O & * & & o o o & > * * & O o O & UXUXUXUXUXUXUXUXUXUX",
"UXUXUXUXUXUXUXUXUXUXUXUXUXUXUXUXUXUXUXo O . . . . . . . . o o . . . o & o UXUXUXUXUXUXUXUXUXUXUX",
"UXUXUXUXUXUXUXUXUXUXUXUXUXUXUXUXUXUXUXUXUXo & & o             o O O o UXUXUXUXUXUXUXUXUXUXUXUXUX",
"UXUXUXUXUXUXUXUXUXUXUXUXUXUXUXUXUXUXUXUXUXUXUXUXUXO & & & & O UXUXUXUXUXUXUXUXUXUXUXUXUXUXUXUXUX",
"UXUXUXUXUXUXUXUXUXUXUXUXUXUXUXUXUXUXUXUXUXUXUXUXUXUXUXUXUXUXUXUXUXUXUXUXUXUXUXUXUXUXUXUXUXUXUXUX",
"UXUXUXUXUXUXUXUXUXUXUXUXUXUXUXUXUXUXUXUXUXUXUXUXUXUXUXUXUXUXUXUXUXUXUXUXUXUXUXUXUXUXUXUXUXUXUXUX"
};
