/* XPM */
static char *iceweasel[] = {
/* columns rows colors chars-per-pixel */
"32 32 247 2",
"   c #1E1E1F",
".  c #212122",
"X  c #385E3C",
"o  c #3D5A75",
"O  c #5D5D5D",
"+  c #42645A",
"@  c #445C6A",
"#  c #445C74",
"$  c #445A7A",
"%  c #436467",
"&  c #466C61",
"*  c #45626F",
"=  c #48617C",
"-  c #516377",
";  c gray47",
":  c #2216A4",
">  c #2616B4",
",  c #291AB6",
"<  c #2B1CBC",
"1  c #2E20AC",
"2  c #372CA2",
"3  c #3627B8",
"4  c #3728B8",
"5  c #3A2CBB",
"6  c #3C3CB3",
"7  c #3B32BC",
"8  c #4538AE",
"9  c #4234BD",
"0  c #403EBC",
"q  c #493CBC",
"w  c #3E4F88",
"e  c #3B4495",
"r  c #3F4996",
"t  c #3A46B9",
"y  c #3F67AB",
"u  c #414F8F",
"i  c #435684",
"p  c #43558B",
"a  c #4A5696",
"s  c #495798",
"d  c #4A51A6",
"f  c #515CA6",
"g  c #5850A8",
"h  c #4F42BE",
"j  c #474BBF",
"k  c #5144BE",
"l  c #574BBE",
"z  c #5B51B8",
"x  c #4573AC",
"c  c #4876AF",
"v  c #547EA4",
"b  c #537BB1",
"n  c #727FA3",
"m  c #2E1EC1",
"M  c #2F20C3",
"N  c #3223C5",
"B  c #362CC1",
"V  c #3C2EC5",
"C  c #3526CA",
"Z  c #3728CD",
"A  c #3B2CCA",
"S  c #3D32C2",
"D  c #4235C2",
"F  c #4539C1",
"G  c #4A3DC4",
"H  c #4334CC",
"J  c #4A3CCB",
"K  c #4032D1",
"L  c #4D41C3",
"P  c #454EC3",
"I  c #4E42CA",
"U  c #5145C0",
"Y  c #564BC5",
"T  c #5649CA",
"R  c #594DCB",
"E  c #5253C0",
"W  c #5D52C3",
"Q  c #5D53C9",
"!  c #5244D3",
"~  c #594DD2",
"^  c #5447D8",
"/  c #5D51D1",
"(  c #6157C7",
")  c #6459C3",
"_  c #645BCC",
"`  c #685EC9",
"'  c #6457D3",
"]  c #665AD4",
"[  c #665BDA",
"{  c #695DD8",
"}  c #5C65C5",
"|  c #5868C4",
" . c #6C62C4",
".. c #6C61CB",
"X. c #6B69CE",
"o. c #756DC0",
"O. c #7066CB",
"+. c #756CCC",
"@. c #786ECC",
"#. c #6C7ECA",
"$. c #7E74CE",
"%. c #707DC8",
"&. c #6D62D3",
"*. c #7369D7",
"=. c #7065DC",
"-. c #756BDB",
";. c #7C73D2",
":. c #757BD2",
">. c #7D77D8",
",. c #827ACE",
"<. c #837BD2",
"1. c #837BD9",
"2. c #887FDB",
"3. c #857BE1",
"4. c #5C83B6",
"5. c #7180A6",
"6. c #7682AD",
"7. c #7C8AA8",
"8. c #6086B6",
"9. c #6F87B4",
"0. c #6587BB",
"q. c #6489B9",
"w. c #6A8EBD",
"e. c #7187B3",
"r. c #798EB2",
"t. c #7285BE",
"y. c #728AB8",
"u. c #6E90BE",
"i. c #7E93B7",
"p. c #7192BE",
"a. c #6F83C4",
"s. c #7D8FC4",
"d. c #7387C9",
"f. c #7396C0",
"g. c #7D9CC4",
"h. c #7E96C8",
"j. c #7E98C8",
"k. c #7F8AD0",
"l. c #838383",
"z. c #808AB4",
"x. c #8796B1",
"c. c #8E9CB5",
"v. c #859DBF",
"b. c #8E9EBC",
"n. c #8CA2BD",
"m. c #A9ACAE",
"M. c gray69",
"N. c #BBBBBC",
"B. c #8584C0",
"V. c #878CC2",
"C. c #8E88C6",
"Z. c #938CCC",
"A. c #8294C0",
"S. c #829BC1",
"D. c #8A83D5",
"F. c #8F88D7",
"G. c #8B84D9",
"H. c #8F88DD",
"J. c #918AD2",
"K. c #9992D6",
"L. c #9B95DA",
"P. c #9E98D9",
"I. c #A39DDA",
"U. c #81A0C7",
"Y. c #8BA1C2",
"T. c #8BA5CB",
"R. c #8FABCD",
"E. c #93ACCE",
"W. c #9AAACB",
"Q. c #9EB0C8",
"!. c #99AFD0",
"~. c #97B0D1",
"^. c #9EB6D2",
"/. c #A3A8C8",
"(. c #A7B5CB",
"). c #A7A1DD",
"_. c #AAA4DD",
"`. c #ADA8DE",
"'. c #A1B3D3",
"]. c #A3B9D6",
"[. c #AABCD1",
"{. c #A4B7DA",
"}. c #B5B2D4",
"|. c #B4BFD2",
" X c #BBB7DF",
".X c #8F87E3",
"XX c #9D96E7",
"oX c #9F99E5",
"OX c #9B93E8",
"+X c #A39DE2",
"@X c #A39CE9",
"#X c #A9A4E3",
"$X c #A7A1E8",
"%X c #AEA7ED",
"&X c #B3AEE2",
"*X c #B7B2E2",
"=X c #BBB7E3",
"-X c #BEBAE4",
";X c #BBB5EE",
":X c #BEBBEB",
">X c #B8B2F1",
",X c #C0BDE6",
"<X c #C1BDEA",
"1X c #C3BEF0",
"2X c #AEC2DC",
"3X c #BDC7D2",
"4X c #B3C5DE",
"5X c #BECADF",
"6X c #BBCBE1",
"7X c #BDD0E4",
"8X c #C3CFDD",
"9X c #C8D1DA",
"0X c #C6C3E0",
"qX c #C9C6E7",
"wX c #C3CFE1",
"eX c #CECBE7",
"rX c #C5C0EA",
"tX c #C2D1E4",
"yX c #CDD5E6",
"uX c #CCD9E9",
"iX c #D3D0EE",
"pX c #D1DBE9",
"aX c #C6C2F2",
"sX c #CFCBF4",
"dX c #D1CDF4",
"fX c #D5D3F2",
"gX c #D9D6F2",
"hX c #DCDAF4",
"jX c #D6E0EE",
"kX c #D8E1EF",
"lX c #D6E3F1",
"zX c #DBE6F2",
"xX c #DFE9F3",
"cX c #E3E4E7",
"vX c #E8E7F7",
"bX c #E4ECF4",
"nX c #E8EEF5",
"mX c #E8E6F9",
"MX c #EFEDFA",
"NX c #F0EFF9",
"BX c #EBF1F6",
"VX c #ECF2F8",
"CX c #F3F4F6",
"ZX c #F3F5FA",
"AX c #F6F9FB",
"SX c #FDFEFE",
"DX c None",
/* pixels */
"DXDXDXDXDXDXDXDXDXDXDXDXDXDXDXDXDXDXf.wX].c q.U.b DXDXDXDXDXDXDX",
"DXDXDXDXDXDXDXDXDXDXDXDXDXDXDXDXDXDXbXbXZXAXAXSXAX2Xq.DXDXDXDXDX",
"DXDXDXDXDXDXDXDXDXDXDXDXw.g.R.^.4XkXZXSXSXSXbXZXSXSXAX4.g.DXDXDX",
"DXDXDXDXDXDXDXDXDX].bXSXSXSXSXSXSXSXSXSXSXSXSXSXSXVXZXZXVXZXDXDX",
"DXDXDXDXDXDXDXDXjXSXSXSXSXSXSXAXAXSXSXSXm.3XSXAXBXVXSXSXSXnXT.DX",
"DXDXDXDXDXDXDXtXSXSXSXbX[.v.e.9.y.S.nXSX  - SXSXSX9XAXSXSXZXDXDX",
"DXDXDXDXDXDXp.SXSXbXr.d Z. XqXeX0X}.wXZXAXVXSXSX[.. M.SXSX^.DXDX",
"DXDXDXDXDXDX].SX8Xe  .L._.&X=X,X-X*XW.bXAXSXSXSXAXN.CXSXE.DXDXDX",
"DXDXDXDXDXDXtXSX6.z ,.J.K.I._.`.`.).B.zXlXSXSXSXSXAXZX6XDXDXDXDX",
"DXDXDXDXDXDXpXSX5.) ,.K.D.K.I._._.I.J.6.BX; l.BXzXzXtXDXDXDXDXDX",
"DXDXDXDXDXo pXSXn W +.gXiXP.P.P.P.P.P.C.b.l.O cXkXt.DXDXDXDXDXDX",
"DXDXDXDXDXB yXSX7.NX+.rX,X$.,.<.,.$.@. .g x.b.f : N @ DXDXDXDXDX",
"DXDXDXDXw m 5XSXc.$.k W <.,.$.$.$.@.O.) l 8 o.q )., 7 DXDXDXDXDX",
"DXDXDXDX7 , '.AX[.2 q Y ..K.$.$.$.+...W h W AXO., 4 C DXDXDXDXDX",
"DXDXDXDXC , s.pXQ.1 9 U ( F.L.<.<.+.` W ( W <.7 > > N r DXDXDXDX",
"DXDXDX% N , 6 n.a 3 9 L ( ;.&XL.D.;.<.D.( 5 q L , > < 6 DXDXDXDX",
"DXDXDXi N , < 9 G 5 F Y ` ;.rXvXgX:XL._ G 7 F Y < < < 7 DXDXDXDX",
"DXDXDXu N , < L G 7 F Y ..1.gXSXAX<X+.Q L 9 F T < < < S DXDXDXDX",
"DXDXDX$ N < m j w.u.0.E ..L.hXZXMX#X&.Q L D G I < < < 7 DXDXDXDX",
"DXDXDX& C < M y x 4.f.~.h.D.G.#X:XF._ T G S T D M < N 6 DXDXDXDX",
"DXDXDXDXA m N t w.u.E.4XpX6Xa.;.1.+X&.R G V / N N N N p DXDXDXDX",
"DXDXDXDX0 H N H T.T.4XpXnXAXSX6X%.H.2.' T I / A A m P v DXDXDXDX",
"DXDXDXDX* Z J 3.:Xj.uXnXAXSXSXSXSX4Xk.*.] &.' ! C N '.DXDXDXDXDX",
"DXDXDXDXDX0 A ~ 3.gXT.CXSXSXSXSXSXSXAX2X:.ZX=.! H | uXDXDXDXDXDX",
"DXDXDXDXDXDXK ~ { dXoXA.CXSXSXSXSXSXSXSXnX{.#.} d.jXE.DXDXDXDXDX",
"DXDXDXDXDXDX= ^ -.3.@XXXV.|.AXSXSXAXAXZXVXnXbXbXxX7XDXDXDXDXDXDX",
"DXDXDXDXDXDXDX= [ .X@X%X>X&Xz.(.bXVXBXbXxXzXzXlX2XDXDXDXDXDXDXDX",
"DXDXDXDXDXDXDXDX+ _ OX;X1XsXgXeX/.i.Y.W.!.E.g.8.DXDXDXDXDXDXDXDX",
"DXDXDXDXDXDXDXDXDXDX# X.OXaXmXZXMXfX$X>.f DXDXDXDXDXDXDXDXDXDXDX",
"DXDXDXDXDXDXDXDXDXDXDXDXDX@ i f s # X DXDXDXDXDXDXDXDXDXDXDXDXDX",
"DXDXDXDXDXDXDXDXDXDXDXDXDXDXDXDXDXDXDXDXDXDXDXDXDXDXDXDXDXDXDXDX",
"DXDXDXDXDXDXDXDXDXDXDXDXDXDXDXDXDXDXDXDXDXDXDXDXDXDXDXDXDXDXDXDX"
};
