/* XPM */
static char *mozicon__[] = {
/* columns rows colors chars-per-pixel */
"16 16 153 2",
"   c #3C5360",
".  c #425D71",
"X  c #2818B7",
"o  c #2A1CBB",
"O  c #2B1BBD",
"+  c #2D1EBC",
"@  c #3021B4",
"#  c #352CB7",
"$  c #3227BB",
"%  c #362FBC",
"&  c #3A2CBF",
"*  c #3730B8",
"=  c #4136BF",
"-  c #4538BE",
";  c #493CBF",
":  c #3D4C89",
">  c #3C40A8",
",  c #3B40BE",
"<  c #4A5B83",
"1  c #4245B0",
"2  c #4B40BA",
"3  c #5447BF",
"4  c #4451B4",
"5  c #5962A6",
"6  c #5A65AB",
"7  c #5D69AF",
"8  c #666FA8",
"9  c #727FAD",
"0  c #2D1EC0",
"q  c #2E1FC2",
"w  c #3223C4",
"e  c #342BC4",
"r  c #3A2EC2",
"t  c #3F3CC3",
"y  c #4537C4",
"u  c #4538C0",
"i  c #483ACB",
"p  c #4A3EC8",
"a  c #4E41C3",
"s  c #4D40C4",
"d  c #4C40C8",
"f  c #4B44C9",
"g  c #5347C2",
"h  c #5C4FD6",
"j  c #675DC7",
"k  c #6358CC",
"l  c #695ED5",
"z  c #6B6CC2",
"x  c #6763CD",
"c  c #7167CC",
"v  c #7367CC",
"b  c #736ACF",
"n  c #7877CA",
"m  c #7A71CD",
"M  c #7D73CE",
"N  c #757BCF",
"B  c #6A60D1",
"V  c #7369D0",
"C  c #7B76D9",
"Z  c #857ECC",
"A  c #8078D0",
"S  c #8178D0",
"D  c #8176DF",
"F  c #7E848A",
"G  c #7E88A7",
"H  c #6188B8",
"J  c #7B84C9",
"K  c #7F9DC6",
"L  c #939AA1",
"P  c #9099AD",
"I  c #8799C3",
"U  c #809DC0",
"Y  c #8099C8",
"T  c #8186D0",
"R  c #8383D6",
"E  c #8E8AD8",
"W  c #9089D4",
"Q  c #9189D4",
"!  c #9089D5",
"~  c #928BD6",
"^  c #968ED5",
"/  c #9790D5",
"(  c #9194DA",
")  c #9A93D8",
"_  c #9991DA",
"`  c #9995DE",
"'  c #99A2C8",
"]  c #94AECF",
"[  c #9EA9CD",
"{  c #9EB3D6",
"}  c #AAB7CF",
"|  c #A7A3D5",
" . c #A6A0DC",
".. c #A9A4DD",
"X. c #A2AEDA",
"o. c #ADBDD6",
"O. c #A6B7DB",
"+. c #AABFD9",
"@. c #ADB9DD",
"#. c #BAB6DB",
"$. c #A69FE8",
"%. c #BCB7EA",
"&. c #C1BEE1",
"*. c #C2BEEF",
"=. c #AFC0DA",
"-. c #B7C4D6",
";. c #B7C6D9",
":. c #B3C5DC",
">. c #B8CADF",
",. c #BBCADE",
"<. c #BECEE3",
"1. c #BCCCE4",
"2. c #CCD1D7",
"3. c #DBDCDC",
"4. c #C8C4ED",
"5. c #C3D2E3",
"6. c #C1D0E4",
"7. c #C3D1E5",
"8. c #CAD4E2",
"9. c #CBD7E5",
"0. c #CBD8E8",
"q. c #CEDAE9",
"w. c #D1D8E4",
"e. c #D3DDEB",
"r. c #D3DEED",
"t. c #DCDAF4",
"y. c #D8E1ED",
"u. c #DBE1ED",
"i. c #DBE2EC",
"p. c #DAE3EF",
"a. c #DEE3EC",
"s. c #DBE3F1",
"d. c #DFE7F0",
"f. c gray92",
"g. c #E2E9F2",
"h. c #E4ECF6",
"j. c #E4EDF6",
"k. c #EDECF9",
"l. c #EDF1F5",
"z. c #EBF1F8",
"x. c #EFF5FA",
"c. c #F1F3F8",
"v. c #F1F4F8",
"b. c #F8F9FC",
"n. c #F8FAFD",
"m. c #FAFBFD",
"M. c #FBFBFD",
"N. c #FCFDFE",
"B. c #FEFEFE",
"V. c #FEFEFF",
"C. c #FEFFFF",
"Z. c gray100",
"A. c None",
/* pixels */
"A.A.A.A.A.A.A.A.A.q.y.7.] A.A.A.",
"A.A.A.A.A.+.<.0.g.x.Z.z.m.s.6.A.",
"A.A.A.A.v.V.9.o.,.M.F N.l.N.j.A.",
"A.A.A.5.-.7 | &.#.u.b.Z.L f.>.A.",
"A.A.A.i.5 ^ / .. .' 2.3.h.r.A.A.",
"A.A.: a.8 ~ ) W ! Z G P J A.A.A.",
"A.A.# 8.9 3 S M m j 2 Q @ > A.A.",
"A.A.+ I 6 - c _ A v g ; X * A.A.",
"A.. o & = a b k.t.V u s O $ A.A.",
"A.A.0 , H Y T 4.%.k y d q % A.A.",
"A.A.r e K :.d.@.R B p i w 4 A.A.",
"A.A.1 l N e.B.Z.c.X.C h t U A.A.",
"A.A.A.f D ( w.C.N.n.p.O.1.A.A.A.",
"A.A.A.A.x $.*.[ } ;.=.{ A.A.A.A.",
"A.A.A.A.A.< n ` E z   A.A.A.A.A.",
"A.A.A.A.A.A.A.A.A.A.A.A.A.A.A.A."
};
