/* XPM */
static char *mozicon__[] = {
/* columns rows colors chars-per-pixel */
"48 48 256 2",
"   c #090A0A",
".  c #191919",
"X  c #313131",
"o  c #3A6A1B",
"O  c #3E6A3E",
"+  c #477B39",
"@  c #2A3847",
"#  c #404040",
"$  c #4C4C4C",
"%  c #416947",
"&  c #446958",
"*  c #497B44",
"=  c #42587D",
"-  c #46646B",
";  c #436462",
":  c #58636F",
">  c gray47",
",  c #626262",
"<  c #498034",
"1  c #261C89",
"2  c #2D2997",
"3  c #383C9C",
"4  c #2616B5",
"5  c #2618B3",
"6  c #291AB6",
"7  c #2B1CBC",
"8  c #2012A2",
"9  c #2F21AD",
"0  c #2C24B3",
"q  c #3425B9",
"w  c #362ABD",
"e  c #3A2CBC",
"r  c #3628B7",
"t  c #3E32BD",
"y  c #3E3BB6",
"u  c #453AA9",
"i  c #4235BD",
"p  c #4A3DBD",
"a  c #4438BD",
"s  c #3B4888",
"d  c #3F4A97",
"f  c #3C4AAE",
"g  c #3D6DA9",
"h  c #3867A6",
"j  c #40448F",
"k  c #435687",
"l  c #475599",
"z  c #4E518F",
"x  c #506E9C",
"c  c #63639C",
"v  c #424BA2",
"b  c #4644A8",
"n  c #5147A9",
"m  c #4944B9",
"M  c #5245BE",
"N  c #5050AC",
"B  c #675EBE",
"V  c #456BAA",
"C  c #5667A6",
"Z  c #4672AD",
"A  c #5E75AC",
"S  c #527CB2",
"D  c #5F7ABC",
"F  c #5374B5",
"G  c #6976B2",
"H  c #7775B8",
"J  c #6A73AA",
"K  c #2E1EC1",
"L  c #2F20C2",
"P  c #3222C4",
"I  c #3B2EC4",
"U  c #3425C9",
"Y  c #3629CC",
"T  c #3A2CCB",
"R  c #3628C0",
"E  c #3E30C3",
"W  c #3C30C9",
"Q  c #3631C8",
"!  c #3A2BD2",
"~  c #3E32D1",
"^  c #4335C3",
"/  c #4539C2",
"(  c #4B3DC5",
")  c #493CCA",
"_  c #4334CB",
"`  c #483BD4",
"'  c #4E41C3",
"]  c #4A4EC6",
"[  c #5144C3",
"{  c #564AC2",
"}  c #5A4EC4",
"|  c #5346CB",
" . c #554ACB",
".. c #5A4ECB",
"X. c #5D53C3",
"o. c #5C52CC",
"O. c #4F40D1",
"+. c #5B4ED4",
"@. c #5548D4",
"#. c #5C53D1",
"$. c #5F53D9",
"%. c #6256C6",
"&. c #6459C5",
"*. c #655ACC",
"=. c #695FCB",
"-. c #6459C7",
";. c #6357D2",
":. c #6559D5",
">. c #685CDD",
",. c #6559D8",
"<. c #576AC1",
"1. c #6C62C6",
"2. c #6D63CB",
"3. c #646DC7",
"4. c #756BCB",
"5. c #7A6FCE",
"6. c #7067C9",
"7. c #6B79C6",
"8. c #7C73CE",
"9. c #7E77C1",
"0. c #6D63D4",
"q. c #6B65D7",
"w. c #746BD1",
"e. c #766BDC",
"r. c #786EDA",
"t. c #7D73D4",
"y. c #7B72DC",
"u. c #7370D1",
"i. c #7C72E2",
"p. c #837FB5",
"a. c #837BCF",
"s. c #8077CF",
"d. c #8077D3",
"f. c #847BD2",
"g. c #867DDA",
"h. c #857CE1",
"j. c #5B83B6",
"k. c #5F85AB",
"l. c #6783A7",
"z. c #768BAE",
"x. c #6186B9",
"c. c #678CBB",
"v. c #6B8CBE",
"b. c #6186B7",
"n. c #768BB6",
"m. c #6D91BD",
"M. c #7293BD",
"N. c #6F86C3",
"B. c #7888C8",
"V. c #7493C2",
"C. c #7B96C2",
"Z. c #7A9AC3",
"A. c #7D96CB",
"S. c #909090",
"D. c #929FAE",
"F. c #8799B3",
"G. c #939AB7",
"H. c #818DB1",
"J. c #8FA1BD",
"K. c #95A4BA",
"L. c #A9A9A9",
"P. c #8698CA",
"I. c #8981D4",
"U. c #8B83DB",
"Y. c #8F88D3",
"T. c #938CD6",
"R. c #938BDB",
"E. c #9790D7",
"W. c #9A95D5",
"Q. c #9C95D9",
"!. c #9B96DB",
"~. c #949CC1",
"^. c #A39DDB",
"/. c #A29ECE",
"(. c #82A0C7",
"). c #86A4C9",
"_. c #89A5CB",
"`. c #8EA0C0",
"'. c #92ADCF",
"]. c #97AAC2",
"[. c #95ACD0",
"{. c #92A4D5",
"}. c #97B1D1",
"|. c #9CB4D3",
" X c #A5B4CA",
".X c #A7A1DD",
"XX c #AAA4DD",
"oX c #AEA9DF",
"OX c #ABA6D3",
"+X c #B1ACDF",
"@X c #A4B9D6",
"#X c #A7BAD6",
"$X c #B8B6D4",
"%X c #AEAACB",
"&X c #8D85E3",
"*X c #8A82E8",
"=X c #938BE7",
"-X c #9C95E4",
";X c #9F98E0",
":X c #9991E8",
">X c #A29BE3",
",X c #A29BEB",
"<X c #ABA6E3",
"1X c #AEA9E1",
"2X c #ACA5EB",
"3X c #A9A3E5",
"4X c #B2ADE4",
"5X c #B2ACEC",
"6X c #B9B4E3",
"7X c #BDB9E5",
"8X c #BBB5EB",
"9X c #B9B4F0",
"0X c #C1BDE9",
"qX c #C2BDF0",
"wX c #AEC3DB",
"eX c #B3C5DD",
"rX c #B7C7DB",
"tX c #B7C0CB",
"yX c #BBCBE1",
"uX c #B7C6E0",
"iX c #C5C5C5",
"pX c #C7C4DE",
"aX c #D6D8DC",
"sX c #C4C0E9",
"dX c #C9C6EA",
"fX c #CDCAEE",
"gX c #C7C9E4",
"hX c #C4D1E3",
"jX c #CCD9E9",
"kX c #CBD7E8",
"lX c #D6D3EE",
"zX c #D2DDEC",
"xX c #CCC8F3",
"cX c #D5D2F3",
"vX c #DDDBF5",
"bX c #D9D7F2",
"nX c #D2CFF0",
"mX c #D6E0ED",
"MX c #DAE3EE",
"NX c #D5E3F1",
"BX c #DBE6F2",
"VX c #DEE9F4",
"CX c #E4E7EC",
"ZX c #E3E3F5",
"AX c #E4ECF5",
"SX c #E9EFF6",
"DX c #EDECFB",
"FX c #E7E4F7",
"GX c #F0EFFA",
"HX c #EBF1F7",
"JX c #EDF3F9",
"KX c #F4F4F5",
"LX c #F2F5FA",
"PX c #F6F9FC",
"IX c #FEFEFF",
"UX c None",
/* pixels */
"UXUXUXUXUXUXUXUXUXUXUXUXUXUXUXUXUXUXUXUXUXUXUXUXUXUXUXUXv.@X'.UXUXg UXZ.g UXUXUXUXUXUXUXUXUXUXUX",
"UXUXUXUXUXUXUXUXUXUXUXUXUXUXUXUXUXUXUXUXUXUXUXUXUXUXUX).IXLXPXhX|.zXSXMXeXZ.h h UXUXUXUXUXUXUXUX",
"UXUXUXUXUXUXUXUXUXUXUXUXUXUXUXUXUXUXUXUXUXUXUXUXUXUXUXLXSXHXIXIXIXPXJXIXIXIXkX|.V UXUXUXUXUXUXUX",
"UXUXUXUXUXUXUXUXUXUXUXUXUXUXUXUXUXUXUXUXUXUXUXb.Z.@XjXPXJXIXIXIXIXJXNXIXIXIXIXIXeXh UXUXUXUXUXUX",
"UXUXUXUXUXUXUXUXUXUXUXUXUXUXUXm.@XyXkXMXAXHXIXIXIXIXIXIXPXIXIXIXIXPXBXIXIXIXIXJXPXwXLXLX'.UXUXUX",
"UXUXUXUXUXUXUXUXUXUXUXUXUXZ.MXIXIXIXIXIXIXIXIXIXIXIXIXIXIXIXIXIXIXIXPXIXIXIXVXLXIXPXLXSXIXv.UXUX",
"UXUXUXUXUXUXUXUXUXUXUXUX|.IXIXIXIXIXIXIXIXIXIXIXIXIXIXIXIXIXCXtXIXIXIXIXHXAXSXIXIXIXIXJXJX@XUXUX",
"UXUXUXUXUXUXUXUXUXUXUX'.IXIXIXIXIXIXPXJXSXAXmXmXAXAXSXPXIXIXX > K.IXIXJXAXLXIXIXIXIXIXPXJX[.UXUX",
"UXUXUXUXUXUXUXUXUXUXc.PXIXIXIXPXJXjX].l.C C G G G A A #XIXIX#   F.IXIXIXIXCXD.JXIXIXIXLXPXj.UXUX",
"UXUXUXUXUXUXUXUXUXUXyXIXIXIXJXrXA 3 H OX$XgXgXgXpX$X%X`.LXPXKXCXBXIXIXIXJX@ > S.IXIXIXIX_.UXUXUX",
"UXUXUXUXUXUXUXUXUXUXPXIXIXAXz.2 B ^.1X6X7XsXdXdXdXsX7Xn.JXLXIXIXIXIXIXIXBX:   D.IXIXIX}.UXUXUXUX",
"UXUXUXUXUXUXUXUXUXZ.IXIXMXs 2 4.T.Q..XXX+X6X6X7X6X6X+XP.AXBXJXIXIXIXIXIXIXIXKXIXIXIXZ.UXUXUXUXUX",
"UXUXUXUXUXUXUXUXUX|.IXIX X1 1.s.a.T.Q.^..XXXoX+XoXoXXXQ.J.BXBXJXIXIXIXIXIXIXIXLXPX).UXUXUXUXUXUX",
"UXUXUXUXUXUXUXUXUXeXIXIX].n 1.4.6XY.T.T.Q.^.^.^.^.^.Q.E.J zXNXJXIXIXIXIXIXHXAXHXeXUXUXUXUXUXUXUX",
"UXUXUXUXUXUXUXUXUXyXIXIXK.n &.6.lXa.f.Y.W.^.XXoXoXXX^.E.9.c SXiXX $ L.JXjXNXAXeXUXUXUXUXUXUXUXUX",
"UXUXUXUXUXUXUXUX& hXIXIXG.u X.8.a.lXnXXXXX.X.X.X.X.XXXoX1Xp.G.KX. # , PXVXzXl.UXUXUXUXUXUXUXUXUX",
"UXUXUXUXUXUXUXUXW uXIXIXK.n T.8.4XLXGXQ.a.f.I.I.I.f.a.8.8.8.c H.aXiXPXhXG 0 T UXUXUXUXUXUXUXUXUX",
"UXUXUXUXUXUXUXd U eXIXIX XG.PXI.2.6X0X8.8.s.a.f.a.s.8.4.6.=.N j F.z.l 2 8 5 P f UXUXUXUXUXUXUXUX",
"UXUXUXUXUXUXUXT 7 @XIXPXtXc 1XM } &.d.T.8.8.8.8.8.8.5.6.1.&.} m n H u X.8.5 7 T < UXUXUXUXUXUXUX",
"UXUXUXUXUXUX= U 6 [.IXPXhXs i p M X.1.T.I.5.8.8.8.8.4.2.=.X.{ p X.fX4Xe 0Xt 6 U d UXUXUXUXUXUXUX",
"UXUXUXUXUXUXt P 4 V.PXHXrXz r a M } %.f.!.f.8.8.8.5.4.2.&.} M a I.GXFXp 4 6 e P W UXUXUXUXUXUXUX",
"UXUXUXUXUXUX! 7 6 F BXmXrXs q t p { %.6.^.!.d.d.d.8.4.2.%.{ { %.=..X<X5 4 4 4 R ! + UXUXUXUXUXUX",
"UXUXUXUXUX; Y 7 6 0 eXeX#X2 q e a [ X.=.T.1XE.f.f.d.5.2.2.5.5.-.i q t.0 6 6 4 7 Y = UXUXUXUXUXUX",
"UXUXUXUXUXk U 7 4 6 C l.j 9 w t p [ X.2.t.4X7X3X!.f.d.R.R.I.-.i e q w.e 6 6 4 7 U d UXUXUXUXUXUX",
"UXUXUXUXUXv U 7 6 7 7 p } q e i ( { -.2.t.4XvXvXfXsX4X3XU.%.' i e q 2.^ 7 7 6 7 P y UXUXUXUXUXUX",
"UXUXUXUXUXb U 7 6 7 7  . .w e a ' } *.4.I.0XGXPXPXFXsXI.=.} ' / t w 2./ 7 7 7 7 P y UXUXUXUXUXUX",
"UXUXUXUXUXb U 7 7 7 7 o. .w t / [ } *.w.R.fXPXIXIXZX<Xw.=.o.[ / t w 0.^ 7 7 7 7 P y UXUXUXUXUXUX",
"UXUXUXUXUXv U 7 7 K 7 X.S c.m.Z m ..*.w.3XbXLXPXPXcX>Xw.*...[ / E w w.E 7 K 7 7 U y UXUXUXUXUXUX",
"UXUXUXUXUXk Y K 7 L L g S Z S V.(.D w.;X<X7XdXcXZXfXg.2.*. .' / E I w.R L K 7 7 Y v UXUXUXUXUXUX",
"UXUXUXUXUX- ! K 7 P P V Z S b.V._.@X[.N.d.t.R.;X4X4Xg.*.o.| ( ^ I ) :.P P P 7 P Y k UXUXUXUXUXUX",
"UXUXUXUXUXUX! P 7 P P h x.j.m.(.@XeXjXkX_.3.t.t.t.>X;X0.o.| ( ^ I |  .P P P R P ! * UXUXUXUXUXUX",
"UXUXUXUXUXUX^ W K L P W V.M.(.}.eXkXmXSXLXAXA.u.t.U.>Xg.*.o.| ) W ;.) P U I L U f UXUXUXUXUXUXUX",
"UXUXUXUXUXUXk ! ) P U r.jX).'.eXhXmXSXLXPXIXIXzXN.u.R.-X0.;...|  .0.T T _ L P Y Z.UXUXUXUXUXUXUX",
"UXUXUXUXUXUXUX! U | U.>.xX{.|.hXMXSXLXPXIXIXIXIXIXyX7.R.g.0.:.#.0.:.+.O.Y P U <.wXUXUXUXUXUXUXUX",
"UXUXUXUXUXUXUXv ! U 2Xy.,.=X3.rXAXLXPXIXIXIXIXIXIXIXIXeXN.y.0.r.8Xe.+.` _ U Q uX'.UXUXUXUXUXUXUX",
"UXUXUXUXUXUXUXUX~ Y ) @.h.cXDX7.hXPXIXIXIXIXIXIXIXIXIXIXIXeXB.fXIX:X$.@.) T P.JXx.UXUXUXUXUXUXUX",
"UXUXUXUXUXUXUXUX- ! O.+.,.9XDX5XB. XIXIXIXIXIXIXIXIXIXIXIXIXLX#XA.q.,.+.] P.AXkXUXUXUXUXUXUXUXUX",
"UXUXUXUXUXUXUXUXUXv ` ,.0.e.:X=X-XW.z.CXIXIXIXIXIXIXIXPXPXPXLXLXJXjX#X@XjXAXVXM.UXUXUXUXUXUXUXUX",
"UXUXUXUXUXUXUXUXUXUXm +.e.y.h.2X:X,XQ.H J.LXIXIXPXPXPXPXLXJXJXHXAXAXAXVXBXBX}.UXUXUXUXUXUXUXUXUX",
"UXUXUXUXUXUXUXUXUXUXUXm >.h.&X-X2X2X5X5X/.J J.AXPXPXLXJXHXSXAXAXVXBXBXNXNX|.UXUXUXUXUXUXUXUXUXUX",
"UXUXUXUXUXUXUXUXUXUXUXUXk >.:X>X5X5X9XqXxXsX$XH.z. XjXAXVXBXBXNXNXNXzXwXc.UXUXUXUXUXUXUXUXUXUXUX",
"UXUXUXUXUXUXUXUXUXUXUXUXUX&  .&X5XqXqXxXcXvXvXlXpX$X~.n.n.M.C.C.v.k.x UXUXUXUXUXUXUXUXUXUXUXUXUX",
"UXUXUXUXUXUXUXUXUXUXUXUXUXUXUX- #.*X9XnXvXZXDXDXDXZXbXfX8X&X#.= UXUXUXUXUXUXUXUXUXUXUXUXUXUXUXUX",
"UXUXUXUXUXUXUXUXUXUXUXUXUXUXUXUXUX% l o.i.=X,X5X,X=Xi.#.v % UXUXUXUXUXUXUXUXUXUXUXUXUXUXUXUXUXUX",
"UXUXUXUXUXUXUXUXUXUXUXUXUXUXUXUXUXUXUXUXUXo O % % o UXUXUXUXUXUXUXUXUXUXUXUXUXUXUXUXUXUXUXUXUXUX",
"UXUXUXUXUXUXUXUXUXUXUXUXUXUXUXUXUXUXUXUXUXUXUXUXUXUXUXUXUXUXUXUXUXUXUXUXUXUXUXUXUXUXUXUXUXUXUXUX",
"UXUXUXUXUXUXUXUXUXUXUXUXUXUXUXUXUXUXUXUXUXUXUXUXUXUXUXUXUXUXUXUXUXUXUXUXUXUXUXUXUXUXUXUXUXUXUXUX",
"UXUXUXUXUXUXUXUXUXUXUXUXUXUXUXUXUXUXUXUXUXUXUXUXUXUXUXUXUXUXUXUXUXUXUXUXUXUXUXUXUXUXUXUXUXUXUXUX"
};
